<svg id="Layer_1" data-name="Layer 1" xmlns="http://www.w3.org/2000/svg" viewBox="0 0 275 225">
  <defs>
    <style>
      .waitingBackground { fill: #fff; }
      .waitingText { fill: #0065ab; }
      .waitingSpinnerGray { opacity: 0.15; }
      .waitingSpinnerBlue { fill: #007cbb; }

      #spinnerGroup {
      position: absolute;
          display: inline-block;

                  transform-origin: 50% 35.45%;
          -webkit-transform-origin: 50% 35.45%;
             -moz-transform-origin: 50% 35.45%;

          animation: spin 1s linear infinite;
      }
      @-webkit-keyframes spin {
          from {-webkit-transform: rotate(0deg);}
          to   {-webkit-transform: rotate(359deg);}
      }
      @-moz-keyframes spin {
          from {-moz-transform: rotate(0deg);}
          to   {-moz-transform: rotate(360deg);}
      }
      @-o-keyframes spin {
          from {-o-transform: rotate(0deg);}
          to   {-o-transform: rotate(360deg);}
      }
      @keyframes spin {
          from {transform: rotate(0deg);}
          to   {transform: rotate(360deg);}
      }

      
    </style>
  </defs>
  <title>waiting_spinner</title>
  <rect class="waitingBackground" width="275" height="225"/>
  <g>
    <path class="waitingText" d="M38.17,156.34v11H36.55v-4.85h-6v4.85H28.93v-11h1.62V161h6v-4.64Z"/>
    <path class="waitingText" d="M47.45,162.32v5H45.9V166.2a3.48,3.48,0,0,1-2.76,1.33c-1.76,0-3.06-1-3.06-2.65s1.49-2.75,3.32-2.75a8.09,8.09,0,0,1,2.5.45v-.26a1.94,1.94,0,0,0-2.13-2.14,5.25,5.25,0,0,0-2.34.69l-.58-1.17a7.08,7.08,0,0,1,3.14-.83A3.2,3.2,0,0,1,47.45,162.32Zm-1.55,2.42v-1.1a7.71,7.71,0,0,0-2.26-.32c-1.11,0-2,.62-2,1.52s.8,1.44,1.84,1.44A2.45,2.45,0,0,0,45.9,164.74Z"/>
    <path class="waitingText" d="M57.05,162.07v5.26H55.5v-5a1.93,1.93,0,0,0-1.91-2.1A2.2,2.2,0,0,0,51.32,162v5.36H49.73v-8.27h1.59v1.2a3.06,3.06,0,0,1,2.62-1.39A3,3,0,0,1,57.05,162.07Z"/>
    <path class="waitingText" d="M67.19,159.06v7.39c0,2.13-1.74,3.64-4.19,3.64A5.67,5.67,0,0,1,59.54,169l.63-1.18a3.88,3.88,0,0,0,2.59.91c1.78,0,2.85-.85,2.85-2.29v-1.2a3.47,3.47,0,0,1-2.93,1.5,3.93,3.93,0,0,1,0-7.85,3.47,3.47,0,0,1,2.93,1.52v-1.33Zm-1.58,3.73a2.52,2.52,0,1,0-2.53,2.56A2.45,2.45,0,0,0,65.61,162.79Z"/>
    <path class="waitingText" d="M78.58,166.93a2.65,2.65,0,0,1-1.65.6,2.12,2.12,0,0,1-2.17-2.26V160.4H73.51v-1.34h1.25v-2.27h1.55v2.27h2v1.34h-2v4.76a.91.91,0,0,0,.85,1,1.24,1.24,0,0,0,.85-.31Z"/>
    <path class="waitingText" d="M80,156.72a1,1,0,0,1,1-.94,1,1,0,0,1,1,.94,1,1,0,0,1-1,1A1,1,0,0,1,80,156.72Zm.16,2.34h1.59v8.27H80.18Z"/>
    <path class="waitingText" d="M91.93,159.06v7.39c0,2.13-1.75,3.64-4.2,3.64A5.62,5.62,0,0,1,84.28,169l.62-1.18a3.9,3.9,0,0,0,2.59.91c1.78,0,2.85-.85,2.85-2.29v-1.2a3.46,3.46,0,0,1-2.93,1.5,3.93,3.93,0,0,1,0-7.85,3.46,3.46,0,0,1,2.93,1.52v-1.33Zm-1.59,3.73a2.52,2.52,0,1,0-2.53,2.56A2.44,2.44,0,0,0,90.34,162.79Z"/>
    <path class="waitingText" d="M101.61,162.07v5.26h-1.55v-5a1.93,1.93,0,0,0-1.91-2.1,2.16,2.16,0,0,0-2.29,2v5.13H94.29V156.14h1.57v4.15a3.1,3.1,0,0,1,2.64-1.42A3,3,0,0,1,101.61,162.07Z"/>
    <path class="waitingText" d="M108.33,166.93a2.67,2.67,0,0,1-1.65.6,2.13,2.13,0,0,1-2.18-2.26V160.4h-1.25v-1.34h1.25v-2.27h1.55v2.27h2v1.34h-2v4.76a.92.92,0,0,0,.85,1,1.24,1.24,0,0,0,.85-.31Z"/>
    <path class="waitingText" d="M113.83,159.06h1.62l1.9,6.16,2.05-6.16h1.34l2.05,6.16,1.89-6.16h1.62l-2.79,8.27h-1.45l-2-6.14-2,6.14h-1.46Z"/>
    <path class="waitingText" d="M135.21,162.07v5.26h-1.55v-5a1.93,1.93,0,0,0-1.91-2.1,2.16,2.16,0,0,0-2.29,2v5.13h-1.57V156.14h1.57v4.15a3.1,3.1,0,0,1,2.64-1.42A3,3,0,0,1,135.21,162.07Z"/>
    <path class="waitingText" d="M137.3,156.72a1,1,0,0,1,1-.94,1,1,0,0,1,1,.94,1,1,0,0,1-1,1A1,1,0,0,1,137.3,156.72Zm.16,2.34H139v8.27h-1.58Z"/>
    <path class="waitingText" d="M141.33,156.14h1.57v11.19h-1.57Z"/>
    <path class="waitingText" d="M151.37,165.22l1,1a5,5,0,0,1-3.35,1.29,4.25,4.25,0,0,1-4.25-4.36,4.15,4.15,0,0,1,4.13-4.3c2.52,0,4,1.92,4,4.88h-6.51a2.62,2.62,0,0,0,2.64,2.37A3.65,3.65,0,0,0,151.37,165.22Zm-5-2.74h5a2.29,2.29,0,0,0-2.38-2.21A2.6,2.6,0,0,0,146.37,162.48Z"/>
    <path class="waitingText" d="M158.6,159.06h1.61l1.91,6.16,2-6.16h1.34l2.05,6.16,1.89-6.16h1.61l-2.78,8.27h-1.46l-2-6.14-2,6.14h-1.46Z"/>
    <path class="waitingText" d="M178.42,165.22l1,1a5,5,0,0,1-3.35,1.29,4.25,4.25,0,0,1-4.26-4.36,4.15,4.15,0,0,1,4.13-4.3c2.53,0,4,1.92,4,4.88h-6.52a2.64,2.64,0,0,0,2.64,2.37A3.61,3.61,0,0,0,178.42,165.22Zm-5-2.74h5a2.31,2.31,0,0,0-2.38-2.21A2.6,2.6,0,0,0,173.43,162.48Z"/>
    <path class="waitingText" d="M185.89,163.19a4.39,4.39,0,0,1,4.37-4.32,4.25,4.25,0,0,1,3,1.28l-1.07,1a2.67,2.67,0,0,0-2-.9,3,3,0,0,0,0,5.91,2.71,2.71,0,0,0,2-.93l1.07,1a4.32,4.32,0,0,1-3.1,1.33A4.41,4.41,0,0,1,185.89,163.19Z"/>
    <path class="waitingText" d="M194.42,163.19a4.36,4.36,0,1,1,4.37,4.34A4.39,4.39,0,0,1,194.42,163.19Zm7.12,0a2.77,2.77,0,1,0-2.75,3A2.89,2.89,0,0,0,201.54,163.19Z"/>
    <path class="waitingText" d="M212.29,162.07v5.26h-1.55v-5a1.92,1.92,0,0,0-1.9-2.1,2.19,2.19,0,0,0-2.27,1.73v5.36H205v-8.27h1.59v1.2a3.06,3.06,0,0,1,2.62-1.39A3,3,0,0,1,212.29,162.07Z"/>
    <path class="waitingText" d="M221.88,162.07v5.26h-1.55v-5a1.93,1.93,0,0,0-1.91-2.1,2.2,2.2,0,0,0-2.27,1.73v5.36h-1.59v-8.27h1.59v1.2a3.07,3.07,0,0,1,2.62-1.39A3,3,0,0,1,221.88,162.07Z"/>
    <path class="waitingText" d="M230.31,165.22l1,1a4.94,4.94,0,0,1-3.34,1.29,4.25,4.25,0,0,1-4.26-4.36,4.15,4.15,0,0,1,4.13-4.3c2.53,0,4,1.92,4,4.88H225.3a2.64,2.64,0,0,0,2.64,2.37A3.63,3.63,0,0,0,230.31,165.22Zm-5-2.74h5a2.31,2.31,0,0,0-2.39-2.21A2.59,2.59,0,0,0,225.32,162.48Z"/>
    <path class="waitingText" d="M233.2,163.19a4.4,4.4,0,0,1,4.37-4.32,4.29,4.29,0,0,1,3.05,1.28l-1.08,1a2.64,2.64,0,0,0-2-.9,3,3,0,0,0,0,5.91,2.71,2.71,0,0,0,2-.93l1.07,1a4.32,4.32,0,0,1-3.1,1.33A4.42,4.42,0,0,1,233.2,163.19Z"/>
    <path class="waitingText" d="M246.81,166.93a2.67,2.67,0,0,1-1.65.6,2.13,2.13,0,0,1-2.18-2.26V160.4h-1.25v-1.34H243v-2.27h1.55v2.27h2v1.34h-2v4.76a.92.92,0,0,0,.85,1,1.24,1.24,0,0,0,.85-.31Z"/>
    <path class="waitingText" d="M22.51,189.06l.35-1.21a2.22,2.22,0,0,0,1,.25,1.17,1.17,0,0,0,1.14-.64l.41-.88-3.55-8.32h1.7l2.65,6.53,2.52-6.53h1.64l-3.64,9c-.6,1.48-1.48,2.11-2.66,2.12A3.46,3.46,0,0,1,22.51,189.06Z"/>
    <path class="waitingText" d="M31.36,182.39a4.35,4.35,0,1,1,4.37,4.34A4.39,4.39,0,0,1,31.36,182.39Zm7.12,0a2.78,2.78,0,1,0-2.75,3A2.89,2.89,0,0,0,38.48,182.39Z"/>
    <path class="waitingText" d="M49.2,178.26v8.27H47.62v-1.2a3.1,3.1,0,0,1-2.63,1.4,3,3,0,0,1-3.1-3.21v-5.26h1.55v5a1.92,1.92,0,0,0,1.9,2.1,2.2,2.2,0,0,0,2.28-1.73v-5.36Z"/>
    <path class="waitingText" d="M60.53,186.13a2.67,2.67,0,0,1-1.65.6,2.13,2.13,0,0,1-2.18-2.26V179.6H55.45v-1.34H56.7V176h1.55v2.27h2v1.34h-2v4.76a.92.92,0,0,0,.85,1A1.24,1.24,0,0,0,60,185Z"/>
    <path class="waitingText" d="M61.69,182.39a4.36,4.36,0,1,1,4.37,4.34A4.39,4.39,0,0,1,61.69,182.39Zm7.13,0a2.78,2.78,0,1,0-2.76,3A2.9,2.9,0,0,0,68.82,182.39Z"/>
    <path class="waitingText" d="M83.76,181.52v5H82.21V185.4a3.48,3.48,0,0,1-2.76,1.33c-1.76,0-3-1-3-2.65s1.49-2.75,3.31-2.75a8,8,0,0,1,2.5.45v-.26a1.94,1.94,0,0,0-2.13-2.14,5.25,5.25,0,0,0-2.34.69l-.57-1.17a7,7,0,0,1,3.13-.83A3.2,3.2,0,0,1,83.76,181.52Zm-1.55,2.42v-1.1a7.62,7.62,0,0,0-2.26-.32c-1.1,0-2,.62-2,1.52s.8,1.44,1.84,1.44A2.45,2.45,0,0,0,82.21,183.94Z"/>
    <path class="waitingText" d="M90.24,181A5.78,5.78,0,0,1,96,175.34a5.65,5.65,0,0,1,4,1.73l-1.14,1.09A4,4,0,0,0,96,176.83a4.21,4.21,0,0,0,0,8.41,4,4,0,0,0,2.91-1.33L100,185a5.68,5.68,0,0,1-9.76-4Z"/>
    <path class="waitingText" d="M101.58,175.34h1.57v11.19h-1.57Z"/>
    <path class="waitingText" d="M105,182.39a4.36,4.36,0,1,1,4.38,4.34A4.4,4.4,0,0,1,105,182.39Zm7.13,0a2.78,2.78,0,1,0-2.75,3A2.9,2.9,0,0,0,112.13,182.39Z"/>
    <path class="waitingText" d="M122.85,178.26v8.27h-1.59v-1.2a3.07,3.07,0,0,1-2.62,1.4,3,3,0,0,1-3.11-3.21v-5.26h1.55v5a1.93,1.93,0,0,0,1.91,2.1,2.2,2.2,0,0,0,2.27-1.73v-5.36Z"/>
    <path class="waitingText" d="M133.09,175.34v11.19h-1.57v-1.44a3.36,3.36,0,0,1-3,1.64c-2.17,0-3.81-1.8-3.81-4.34s1.64-4.32,3.81-4.32a3.38,3.38,0,0,1,3,1.61v-4.34Zm-1.57,7a2.6,2.6,0,1,0-2.56,3A2.67,2.67,0,0,0,131.52,182.39Z"/>
    <path class="waitingText" d="M139.5,185l1-1.2a5.06,5.06,0,0,0,3.61,1.54c1.53,0,2.31-.81,2.31-1.69,0-1-.91-1.44-2.75-1.85-2.24-.53-3.73-1.2-3.73-3.19,0-1.84,1.6-3.23,3.81-3.23a5.81,5.81,0,0,1,4,1.55l-.92,1.22a4.75,4.75,0,0,0-3.16-1.35,1.9,1.9,0,0,0-2.09,1.67c0,1,.94,1.37,2.75,1.81,2.19.51,3.71,1.25,3.71,3.21s-1.41,3.27-4,3.27A6.35,6.35,0,0,1,139.5,185Z"/>
    <path class="waitingText" d="M157.25,178.26v8.27h-1.59v-1.2a3.07,3.07,0,0,1-2.62,1.4,3,3,0,0,1-3.11-3.21v-5.26h1.56v5a1.92,1.92,0,0,0,1.9,2.1,2.19,2.19,0,0,0,2.27-1.73v-5.36Z"/>
    <path class="waitingText" d="M168,182.39c0,2.54-1.63,4.34-3.81,4.34a3.35,3.35,0,0,1-2.94-1.64v4.2h-1.57v-11h1.57v1.42a3.36,3.36,0,0,1,2.94-1.61C166.32,178.07,168,179.86,168,182.39Zm-1.6,0a2.6,2.6,0,1,0-2.59,3A2.67,2.67,0,0,0,166.35,182.39Z"/>
    <path class="waitingText" d="M178.27,182.39c0,2.54-1.63,4.34-3.81,4.34a3.35,3.35,0,0,1-2.94-1.64v4.2H170v-11h1.57v1.42a3.36,3.36,0,0,1,2.94-1.61C176.64,178.07,178.27,179.86,178.27,182.39Zm-1.6,0a2.6,2.6,0,1,0-2.59,3A2.67,2.67,0,0,0,176.67,182.39Z"/>
    <path class="waitingText" d="M179.74,182.39a4.36,4.36,0,1,1,4.37,4.34A4.39,4.39,0,0,1,179.74,182.39Zm7.12,0a2.77,2.77,0,1,0-2.75,3A2.89,2.89,0,0,0,186.86,182.39Z"/>
    <path class="waitingText" d="M195,178.07v1.37a2.8,2.8,0,0,0-3.08,2.39v4.7h-1.58v-8.27H192v1.58A3.27,3.27,0,0,1,195,178.07Z"/>
    <path class="waitingText" d="M201,186.13a2.67,2.67,0,0,1-1.65.6,2.13,2.13,0,0,1-2.18-2.26V179.6H196v-1.34h1.25V176h1.55v2.27h2v1.34h-2v4.76a.92.92,0,0,0,.85,1,1.22,1.22,0,0,0,.85-.31Z"/>
    <path class="waitingText" d="M215,184.29h-5.73l-1,2.24h-1.79l4.72-11H213l4.72,11h-1.79Zm-.62-1.45-2.24-5.22-2.24,5.22Z"/>
    <path class="waitingText" d="M227.17,178.26v7.39c0,2.13-1.75,3.64-4.2,3.64a5.62,5.62,0,0,1-3.45-1.11l.62-1.18a3.9,3.9,0,0,0,2.59.91c1.78,0,2.85-.85,2.85-2.29v-1.2a3.46,3.46,0,0,1-2.93,1.5,3.93,3.93,0,0,1,0-7.85,3.46,3.46,0,0,1,2.93,1.52v-1.33ZM225.58,182a2.52,2.52,0,1,0-2.53,2.56A2.44,2.44,0,0,0,225.58,182Z"/>
    <path class="waitingText" d="M235.69,184.42l1,1a5,5,0,0,1-3.35,1.29,4.25,4.25,0,0,1-4.26-4.36,4.15,4.15,0,0,1,4.13-4.3c2.53,0,4,1.92,4,4.88h-6.52a2.64,2.64,0,0,0,2.64,2.37A3.61,3.61,0,0,0,235.69,184.42Zm-5-2.74h5a2.3,2.3,0,0,0-2.38-2.21A2.6,2.6,0,0,0,230.7,181.68Z"/>
    <path class="waitingText" d="M246.35,181.27v5.26H244.8v-5a1.93,1.93,0,0,0-1.91-2.1,2.2,2.2,0,0,0-2.27,1.73v5.36H239v-8.27h1.58v1.2a3.08,3.08,0,0,1,2.63-1.39A3,3,0,0,1,246.35,181.27Z"/>
    <path class="waitingText" d="M253.07,186.13a2.67,2.67,0,0,1-1.65.6,2.13,2.13,0,0,1-2.18-2.26V179.6H248v-1.34h1.24V176h1.56v2.27h1.95v1.34H250.8v4.76a.91.91,0,0,0,.84,1,1.2,1.2,0,0,0,.85-.31Z"/>
  </g>
  <g id="spinnerGroup">
    <path class="waitingSpinnerGray" d="M137.5,43.67a36,36,0,1,0,36,36A36,36,0,0,0,137.5,43.67Zm0,67a31,31,0,1,1,31-31A31,31,0,0,1,137.5,110.67Z"/>
    <path class="waitingSpinnerBlue" d="M101.5,79.67A35.92,35.92,0,0,0,112,105.13l3.54-3.54A31,31,0,0,1,137.5,48.67v-5A36,36,0,0,0,101.5,79.67Z"/>
  </g>
</svg>
